<?xml version="1.0" encoding="UTF-8"?>
<!--Generator: Apple Native CoreSVG 326-->
<!DOCTYPE svg
PUBLIC "-//W3C//DTD SVG 1.1//EN"
       "http://www.w3.org/Graphics/SVG/1.1/DTD/svg11.dtd">
<svg version="1.1" xmlns="http://www.w3.org/2000/svg" xmlns:xlink="http://www.w3.org/1999/xlink" viewBox="0 0 13.0234 12.6172">
 <g>
  <rect height="12.6172" opacity="0" width="13.0234" x="0" y="0"/>
  <path d="M6.30469 12.6094C9.78906 12.6094 12.6172 9.78906 12.6172 6.30469C12.6172 2.82031 9.78906 0 6.30469 0C2.82812 0 0 2.82031 0 6.30469C0 9.78906 2.82812 12.6094 6.30469 12.6094ZM6.30469 11.4219C3.47656 11.4219 1.19531 9.13281 1.19531 6.30469C1.19531 3.47656 3.47656 1.1875 6.30469 1.1875C9.13281 1.1875 11.4219 3.47656 11.4219 6.30469C11.4219 9.13281 9.13281 11.4219 6.30469 11.4219Z" fill="#111"/>
  <path d="M3.77344 9.0625L8.82812 9.0625C9.46875 9.0625 9.78906 8.74219 9.78906 8.11719L9.78906 4.53125C9.78906 3.89844 9.46875 3.58594 8.82812 3.58594L3.77344 3.58594C3.14062 3.58594 2.8125 3.89844 2.8125 4.53125L2.8125 8.11719C2.8125 8.74219 3.14062 9.0625 3.77344 9.0625ZM3.78906 8.45312C3.55469 8.45312 3.42188 8.3125 3.42188 8.07812L3.42188 7.80469L4.21094 7.14062C4.33594 7.03125 4.47656 6.96094 4.60938 6.96094C4.75 6.96094 4.89844 7.03125 5.03125 7.14844L5.60156 7.64844L7.00781 6.39844C7.14062 6.28125 7.30469 6.21094 7.46875 6.21094C7.63281 6.21094 7.80469 6.28125 7.92969 6.40625L9.17969 7.54688L9.17969 8.07812C9.17969 8.3125 9.04688 8.45312 8.8125 8.45312ZM5.07812 6.40625C4.67188 6.40625 4.33594 6.07812 4.33594 5.67188C4.33594 5.27344 4.67188 4.9375 5.07812 4.9375C5.47656 4.9375 5.80469 5.27344 5.80469 5.67188C5.80469 6.07812 5.47656 6.40625 5.07812 6.40625Z" fill="#111"/>
 </g>
</svg>
