<svg viewBox="0 0 60 60" xmlns="http://www.w3.org/2000/svg" fill="none" height="100" width="100">
    <g clip-path="url(#clip0_431_8152)">
        <path d="M60 30.9H0V60H60V30.9Z" fill="#E4251B"></path>
        <path d="M46.7894 35.0039C45.0289 35.0039 43.8206 36.21 43.8206 37.8328C43.8206 39.4556 45.0289 40.6617 46.7894 40.6617C48.55 40.6617 49.7583 39.4556 49.7583 37.8328C49.7583 36.21 48.55 35.0039 46.7894 35.0039ZM46.7894 40.0656C45.6861 40.0656 44.8706 39.0783 44.8706 37.8328C44.8706 36.5872 45.6861 35.6006 46.7894 35.6006C47.8928 35.6006 48.7083 36.5878 48.7083 37.8328C48.7083 39.0778 47.8928 40.0656 46.7894 40.0656Z" fill="white"></path>
        <path d="M18.8439 37.8433C18.8439 37.1295 18.8794 36.1667 18.8955 35.5178C18.9022 35.245 18.7594 35.1 18.4877 35.1H17.7416C17.9033 35.5939 17.89 36.4856 17.89 37.8433C17.89 38.5572 17.8383 39.52 17.8216 40.1689C17.8144 40.4417 17.9577 40.5867 18.2294 40.5867H18.9916C18.83 40.0928 18.8433 39.2011 18.8433 37.8433H18.8439Z" fill="white"></path>
        <path d="M41.9167 37.8822H41.1706C41.3156 38.3261 41.32 38.8261 41.3189 39.9094C41.02 40.015 40.6683 40.0533 40.3244 40.0533C37.1617 40.0533 37.215 35.5906 39.9678 35.5906C40.8567 35.5906 41.4772 36.0344 41.6061 36.5428C41.7311 36.3706 42.0367 36.0261 42.0367 35.7856C42.0367 35.3644 41.2706 35.015 40.0628 35.015C36.1006 35.015 35.7294 40.6711 40.0661 40.6711C40.6739 40.6711 41.7928 40.5661 42.2722 40.2961C42.2722 39.5822 42.3078 38.9489 42.3239 38.2994C42.3306 38.0267 42.1878 37.8817 41.9161 37.8817L41.9167 37.8822Z" fill="white"></path>
        <path d="M14.0172 38.3122C14.9844 38.1045 15.5511 37.4611 15.5511 36.5589C15.5511 35.74 14.8761 35.1 13.5522 35.1H11.4889C11.6506 35.5939 11.6372 36.4856 11.6372 37.8433C11.6372 38.5572 11.5856 39.52 11.5689 40.1689C11.5617 40.4417 11.705 40.5867 11.9767 40.5867H12.7389C12.6 40.1617 12.5906 39.4422 12.5906 38.3845H13.0439C14.5039 40.7089 15.5406 41.4356 16.8083 41.1167C15.7183 40.6211 14.9039 39.5189 14.0178 38.3122H14.0172ZM12.5906 37.8889C12.5906 37.22 12.6217 36.2867 12.6389 35.6433C12.9206 35.6211 13.1567 35.6078 13.29 35.6078C14.1 35.6078 14.5644 36.0261 14.5644 36.6828C14.5644 37.5106 13.975 37.8889 13.2422 37.8889H12.59H12.5906Z" fill="white"></path>
        <path d="M30.3678 35.1H29.8361C29.825 35.4817 29.5495 35.9767 29.2322 36.505C29.0295 36.8428 28.7889 37.2094 28.5295 37.6133C28.2033 37.0639 27.6928 36.0795 27.35 35.4017C27.2567 35.2172 27.0672 35.1 26.8606 35.1H25.8717C26.7645 36.3356 27.5017 37.6128 27.9156 38.3428C27.9061 38.955 27.8683 39.6872 27.8556 40.2039C27.8495 40.4539 27.9806 40.5867 28.2295 40.5867H29.0256C28.8867 40.1628 28.8889 39.3422 28.8895 38.2167C29.3661 37.3906 29.8239 36.6683 30.595 35.5289C30.7511 35.2983 30.6772 35.1006 30.3683 35.1006L30.3678 35.1Z" fill="white"></path>
        <path d="M32.8628 36.3778C32.8628 35.8833 33.2933 35.6 33.79 35.6C34.3678 35.6 34.7311 35.8833 34.9994 36.2789C35.1111 36.1278 35.2961 35.8978 35.2961 35.6572C35.2961 35.2828 34.78 35.0211 33.8605 35.0211C32.8828 35.0211 31.9589 35.5439 31.9589 36.5756C31.9589 38.4128 34.5755 37.9122 34.5755 39.1133C34.5755 39.6272 34.1989 40.0545 33.5639 40.0545C32.8055 40.0545 32.3778 39.6678 32.0667 39.1872C31.9672 39.3956 31.9089 39.605 31.9089 39.8306C31.9089 40.39 32.5322 40.6595 33.4911 40.6595C34.6178 40.6595 35.4655 40.0378 35.4655 38.8511C35.4655 37.1261 32.8622 37.5339 32.8622 36.3772L32.8628 36.3778Z" fill="white"></path>
        <path d="M24.3 35.1H21.3489C21.5105 35.5939 21.4972 36.4856 21.4972 37.8433C21.4972 38.5572 21.4455 39.52 21.4289 40.1689C21.4217 40.4417 21.565 40.5867 21.8367 40.5867H22.5989C22.4433 40.1106 22.45 39.2656 22.4505 37.99H22.8772C23.6733 37.99 24.0828 38.0856 24.2655 38.2445C24.4161 37.8339 24.4222 37.4589 24.0239 37.4589H22.4533C22.4611 36.8656 22.4844 36.185 22.4983 35.6617H23.085C23.9283 35.6617 24.3628 35.7783 24.5561 35.9467C24.7155 35.5117 24.7222 35.1006 24.3 35.1006V35.1Z" fill="white"></path>
        <path d="M54.6667 39.6917C54.4594 39.8556 54.0894 40.0244 53.2017 40.0244H52.4928C52.4422 39.5078 52.4483 38.7889 52.4483 37.8439C52.4483 37.13 52.4839 36.1672 52.5 35.5183C52.5067 35.2456 52.3639 35.1006 52.0922 35.1006H51.3461C51.5078 35.5944 51.4944 36.4861 51.4944 37.8439C51.4944 38.5578 51.4428 39.5206 51.4261 40.1694C51.4189 40.4422 51.5622 40.5872 51.8339 40.5872H54.1628C54.5222 40.5872 54.7944 40.2989 54.6661 39.6917H54.6667Z" fill="white"></path>
        <path d="M7.88554 35.1H5.95276C6.11387 35.5939 6.10109 36.4856 6.10109 37.8433C6.10109 38.5572 6.04943 39.52 6.03276 40.1689C6.02554 40.4417 6.16887 40.5867 6.44054 40.5867H7.20276C7.0672 40.1717 7.05498 39.4756 7.05443 38.4578H7.62887C9.02998 38.4578 9.88387 37.7267 9.88387 36.5756C9.88387 35.7567 9.20887 35.1 7.88498 35.1H7.88554ZM7.57609 37.9622H7.05443C7.05443 37.9228 7.05443 37.8833 7.05443 37.8433C7.05443 37.1706 7.08609 36.2778 7.10331 35.6339C7.32665 35.6178 7.51109 35.6083 7.62331 35.6083C8.43331 35.6083 8.89776 36.0428 8.89776 36.6995C8.89776 37.5711 8.30831 37.9622 7.57554 37.9622H7.57609Z" fill="white"></path>
        <path d="M36.43 44.4928H32.8411C33.1572 45.1878 33.0922 47.9967 33.0922 49.3444C33.0922 50.6922 33.0189 52.3844 32.9967 53.5417C32.9872 54.0428 33.1772 54.2339 33.6761 54.2339H36.1239C39.7745 54.2339 41.6395 52.1022 41.6395 49.0839C41.6395 46.0655 39.5139 44.4928 36.4295 44.4928H36.43ZM35.9345 53.3983H34.7306C34.6595 52.5533 34.6322 51.1811 34.6322 49.3444C34.6322 48.0955 34.68 46.4305 34.7033 45.2844C35.0445 45.2589 35.3895 45.2444 35.7295 45.2444C37.5311 45.2444 39.9172 46.0661 39.9172 49.345C39.9172 52.6239 37.9578 53.3989 35.935 53.3989L35.9345 53.3983Z" fill="white"></path>
        <path d="M17.7844 49.3461C17.1972 47.9811 16.6155 46.6483 16.2744 45.8733C16.1839 45.6678 15.9811 45.5356 15.7561 45.5356H15.4589C15.1555 46.5644 14.5778 47.7422 13.8033 49.3461C13.2461 50.5006 12.7105 51.6228 12.2472 52.4911C12.0216 52.9133 12.1589 53.1567 12.5566 53.1567H13.1778C13.095 52.8856 13.4211 51.9706 13.8972 50.8561H16.8378C17.0628 51.4456 17.2833 52.0483 17.5044 52.6956C17.5983 52.9711 17.8566 53.1572 18.1478 53.1572H19.5694C19.1866 52.8106 18.655 51.3717 17.7839 49.3467L17.7844 49.3461ZM14.16 50.2556C14.5761 49.3194 15.0589 48.3056 15.4766 47.4394C15.8811 48.4511 16.2511 49.3511 16.6061 50.2556H14.16Z" fill="white"></path>
        <path d="M20.6233 47.5805H20.9267C21.8295 47.5805 22.2945 47.6889 22.5017 47.8694C22.6728 47.4033 22.6795 47.0039 22.2272 47.0039H20.6261C20.6311 46.3622 20.6433 45.6539 20.6567 45.1039H21.1756C22.1322 45.1039 22.6245 45.2361 22.8439 45.4272C23.025 44.9333 23.0322 44.4928 22.5533 44.4928H19.3306C19.5139 45.0539 19.4989 46.0667 19.4989 47.61C19.4989 48.4211 19.44 49.515 19.4217 50.2522C19.4139 50.5622 19.5761 50.7272 19.885 50.7272H22.4272C22.835 50.7272 22.9983 50.5655 22.9983 50.1233V49.7372C22.7633 49.9233 22.3439 50.1144 21.3361 50.1144H20.6528C20.6233 49.5172 20.6239 48.6928 20.6239 47.5805H20.6233Z" fill="white"></path>
        <path d="M47.0478 45.0233C47.2411 44.7372 47.1494 44.4928 46.7667 44.4928H46.1078C46.0939 44.9655 45.7528 45.5789 45.3594 46.2333C45.1389 46.6005 44.8828 46.995 44.6061 47.4239C44.2033 46.7233 43.64 45.6355 43.2511 44.8661C43.1356 44.6372 42.9011 44.4928 42.6444 44.4928H41.4183C42.4406 45.9072 43.2983 47.3661 43.8272 48.2933C43.8222 49.09 43.7678 50.1155 43.75 50.8178C43.7422 51.1278 43.9044 51.2928 44.2133 51.2928H45.2C45.0211 50.7461 45.0306 49.6678 45.0311 48.1855C45.5878 47.2305 46.1439 46.3583 47.0467 45.0239L47.0478 45.0233Z" fill="white"></path>
        <path d="M52.2995 44.4928H49.3195C49.5739 45.0522 49.5217 47.3128 49.5217 48.3978C49.5217 49.4828 49.4622 50.845 49.4445 51.7767C49.4367 52.18 49.59 52.3339 49.9911 52.3339H52.0528C54.9911 52.3339 56.4922 50.6183 56.4922 48.1883C56.4922 45.7583 54.7811 44.4928 52.2989 44.4928H52.2995ZM51.9006 51.6611H50.7778C50.7711 50.7311 50.7611 49.3917 50.7611 48.3978C50.7611 47.4039 50.7711 46.0628 50.7783 45.14C51.0956 45.1133 51.4183 45.0967 51.7356 45.0967C53.1856 45.0967 55.1067 45.7583 55.1067 48.3972C55.1067 51.0361 53.5295 51.6605 51.9011 51.6605L51.9006 51.6611Z" fill="white"></path>
        <path d="M49.7306 47.9661H46.7505C47.005 48.5256 46.9528 50.7861 46.9528 51.8711C46.9528 52.9561 46.8933 54.3183 46.8755 55.25C46.8678 55.6533 47.0211 55.8072 47.4222 55.8072H49.4839C52.4222 55.8072 53.9233 54.0917 53.9233 51.6617C53.9233 49.2317 52.2122 47.9661 49.73 47.9661H49.7306ZM49.3317 55.1344H48.2089C48.2022 54.2044 48.1922 52.865 48.1922 51.8711C48.1922 50.8772 48.2022 49.5361 48.2094 48.6133C48.5267 48.5867 48.8494 48.57 49.1667 48.57C50.6167 48.57 52.5378 49.2317 52.5378 51.8706C52.5378 54.5094 50.9605 55.1339 49.3322 55.1339L49.3317 55.1344Z" fill="white"></path>
        <path d="M13.5783 54.1106C12.855 54.8456 11.7606 55.2428 10.6117 55.2428C7.20722 55.2428 5.57833 52.4483 5.57833 49.7261C5.57833 47.0039 7.04833 44.6189 9.86278 44.6189C11.7289 44.6189 13.0306 45.7239 13.3017 46.9278C13.5639 46.52 13.9789 45.9106 13.9789 45.3695C13.9789 44.4211 12.4506 43.6339 10.0394 43.6339C5.95944 43.6339 3.77722 46.9672 3.77722 50.2239C3.77722 53.4806 5.78444 56.3733 10.0456 56.3733C11.2583 56.3733 12.5472 56.0456 13.5033 55.4383C13.6511 55.3445 13.7283 55.1706 13.7044 54.9972L13.5783 54.1106Z" fill="white"></path>
        <path d="M28.4883 50.3867C30.1417 49.9533 31.1039 48.7939 31.1039 47.1944C31.1039 45.6789 29.8545 44.4928 27.4028 44.4928H24.0672C24.3917 45.2839 24.3189 47.9989 24.3189 49.3483C24.3189 50.6978 24.2456 52.3905 24.2233 53.5489C24.2139 54.0505 24.4039 54.2417 24.9033 54.2417H26.0889C25.9467 53.8261 25.8822 52.5644 25.865 50.5739H26.9539C29.9378 55.4417 31.9617 56.8511 34.2767 56.2683C32.0345 55.2494 30.3367 52.8933 28.4889 50.3872L28.4883 50.3867ZM25.8606 49.8794C25.8606 49.7067 25.8595 49.5294 25.8595 49.3478C25.8595 48.0872 25.9083 46.4022 25.9311 45.2544C26.3367 45.2261 26.6706 45.21 26.8811 45.21C28.5389 45.21 29.4906 46.0661 29.4906 47.4105C29.4906 49.1055 28.2839 49.8794 26.7839 49.8794H25.8606Z" fill="white"></path>
        <path d="M60 0H0V29.1H60V0Z" fill="#E4251B"></path>
        <path d="M26.2989 19.4083H25.7728C25.8456 19.9667 25.2561 21.28 24.2583 23.5344C23.7211 22.1894 23.2672 21.12 22.8133 19.7956C22.7339 19.5639 22.5172 19.4078 22.2722 19.4078H21.3067C21.8644 20.4733 22.0922 21.0094 22.5933 22.1533C22.9983 23.0789 23.3206 23.88 23.6039 24.5567C23.71 24.81 23.8261 24.8989 24.1161 24.8989H24.3378C24.7461 23.8211 24.985 23.3089 25.5172 22.1533C25.9011 21.3194 26.2694 20.5083 26.59 19.8822C26.7233 19.6217 26.6944 19.4078 26.2989 19.4078V19.4083Z" fill="white"></path>
        <path d="M54.8844 19.8372C55.0406 19.6061 54.9667 19.4083 54.6578 19.4083H54.1256C54.1144 19.79 53.8389 20.285 53.5217 20.8139C53.3189 21.1517 53.0778 21.5194 52.8183 21.9228C52.4917 21.3733 51.9811 20.3878 51.6378 19.7094C51.5444 19.5244 51.355 19.4083 51.1478 19.4083H50.1578C51.0517 20.6444 51.7889 21.9228 52.2028 22.6533C52.1933 23.2661 52.1556 23.9989 52.1428 24.5155C52.1367 24.7655 52.2678 24.8994 52.5167 24.8994H53.3133C53.1744 24.475 53.1761 23.6533 53.1772 22.5267C53.6544 21.7 54.1122 20.9772 54.8844 19.8367V19.8372Z" fill="white"></path>
        <path d="M39.0261 20.6872C39.0261 20.1922 39.4572 19.9089 39.9545 19.9089C40.5322 19.9089 40.8961 20.1922 41.165 20.5883C41.2767 20.4372 41.4622 20.2067 41.4622 19.9661C41.4622 19.5911 40.9456 19.3294 40.0256 19.3294C39.0472 19.3294 38.1222 19.8522 38.1222 20.885C38.1222 22.7239 40.7411 22.2228 40.7411 23.425C40.7411 23.9389 40.3645 24.3667 39.7289 24.3667C38.9695 24.3667 38.5417 23.98 38.2306 23.4983C38.1306 23.7067 38.0722 23.9161 38.0722 24.1428C38.0722 24.7028 38.6967 24.9722 39.6561 24.9722C40.7839 24.9722 41.6322 24.35 41.6322 23.1622C41.6322 21.4355 39.0267 21.8444 39.0267 20.6867L39.0261 20.6872Z" fill="white"></path>
        <path d="M35.1161 22.6233C36.0839 22.4155 36.6511 21.7717 36.6511 20.8689C36.6511 20.0494 35.9756 19.4083 34.6506 19.4083H32.5856C32.7472 19.9028 32.7339 20.795 32.7339 22.1539C32.7339 22.8683 32.6822 23.8317 32.6656 24.4817C32.6583 24.7544 32.8017 24.9 33.0734 24.9H33.8361C33.6972 24.4744 33.6872 23.7544 33.6872 22.6955H34.1411C35.6022 25.0217 36.64 25.7494 37.9083 25.43C36.8178 24.9344 36.0022 23.8305 35.1156 22.6233H35.1161ZM33.6878 22.2C33.6878 21.5305 33.7189 20.5967 33.7367 19.9528C34.0189 19.9305 34.2545 19.9172 34.3883 19.9172C35.1989 19.9172 35.6639 20.3355 35.6639 20.9928C35.6639 21.8217 35.0739 22.2 34.3406 22.2H33.6878Z" fill="white"></path>
        <path d="M20.1361 22.1544C20.1361 21.44 20.1717 20.4767 20.1883 19.8267C20.195 19.5539 20.0522 19.4083 19.78 19.4083H19.0333C19.195 19.9028 19.1817 20.795 19.1817 22.1539C19.1817 22.8683 19.13 23.8317 19.1133 24.4817C19.1061 24.7544 19.2494 24.9 19.5211 24.9H20.2839C20.1222 24.4055 20.1355 23.5133 20.1355 22.1544H20.1361Z" fill="white"></path>
        <path d="M44.01 22.1544C44.01 21.44 44.0456 20.4767 44.0622 19.8267C44.0689 19.5539 43.9261 19.4083 43.6539 19.4083H42.9072C43.0689 19.9028 43.0556 20.795 43.0556 22.1539C43.0556 22.8683 43.0039 23.8317 42.9872 24.4817C42.98 24.7544 43.1233 24.9 43.395 24.9H44.1578C43.9961 24.4055 44.0094 23.5133 44.0094 22.1544H44.01Z" fill="white"></path>
        <path d="M10.4317 19.4083H9.9878C10.1495 19.9028 10.12 20.9906 10.12 22.315C10.12 23.4722 9.68447 24.3067 8.43169 24.3067C7.25614 24.3067 6.95169 23.4494 6.95169 22.315C6.95169 21.6006 6.97058 20.4767 6.98725 19.8267C6.99391 19.5539 6.85113 19.4083 6.57947 19.4083H5.87836C5.98169 19.9239 5.98169 20.795 5.98169 22.1539C5.98169 23.9717 6.51502 24.9856 8.30669 24.9856C9.99058 24.9856 10.8061 24.0744 10.8061 22.1539C10.8061 21.4394 10.8239 20.4761 10.8406 19.8261C10.8478 19.5533 10.7045 19.4078 10.4328 19.4078L10.4317 19.4083Z" fill="white"></path>
        <path d="M47.6944 19.4083H45.3511C44.9289 19.4083 44.7555 19.7256 44.9155 20.1611C45.0839 20.0906 45.8711 20.0183 46.7067 20.0172C46.7378 20.5261 46.7461 21.195 46.7461 22.1539C46.7461 22.8683 46.6944 23.8317 46.6778 24.4817C46.6705 24.7544 46.8139 24.9 47.0855 24.9H47.8483C47.6867 24.4056 47.7 23.5133 47.7 22.1544C47.7 21.4989 47.7105 20.6339 47.7255 19.9939C48.2389 20.0161 48.7611 20.0517 49.0689 20.0517C49.4911 20.0517 49.6644 19.7456 49.5044 19.31C49.335 19.3811 48.5339 19.4083 47.6939 19.4083H47.6944Z" fill="white"></path>
        <path d="M16.9155 19.4083H16.4489C16.6105 19.9028 16.5972 20.795 16.5972 22.1539C16.5972 22.5922 16.5961 22.8756 16.5917 23.1794L13.2594 19.6111C13.1361 19.4817 12.965 19.4083 12.7867 19.4083H12.3267C12.4883 19.9028 12.475 20.795 12.475 22.1539C12.475 22.8683 12.4233 23.8317 12.4067 24.4811C12.4 24.7539 12.5428 24.8994 12.8144 24.8994H13.2811C13.1194 24.405 13.1328 23.5128 13.1328 22.1539C13.1328 21.6783 13.1339 21.385 13.14 21.0506L16.5317 24.6956C16.655 24.8256 16.8261 24.8994 17.0055 24.8994H17.3222C17.26 24.4178 17.2555 23.5128 17.2555 22.1539C17.2555 21.4394 17.3072 20.4761 17.3239 19.8261C17.3305 19.5533 17.1878 19.4078 16.9161 19.4078L16.9155 19.4083Z" fill="white"></path>
        <path d="M29.63 24.3367H28.8861C28.8355 23.82 28.8417 23.0689 28.8417 22.1228H29.2689C30.0655 22.1228 30.4755 22.2183 30.6583 22.3772C30.8089 21.9661 30.815 21.5911 30.4167 21.5911H28.8478C28.8572 21.0428 28.8772 20.4428 28.8905 19.97H29.5C30.3439 19.97 30.7783 20.0867 30.9722 20.255C31.1322 19.8194 31.1383 19.4078 30.7161 19.4078H27.74C27.9017 19.9022 27.8883 20.7944 27.8883 22.1533C27.8883 22.8678 27.8367 23.8311 27.82 24.4811C27.8128 24.7539 27.9561 24.8994 28.2278 24.8994H30.5928C30.9522 24.8994 31.225 24.6111 31.0967 24.0033C30.8894 24.1672 30.5194 24.3361 29.6305 24.3361L29.63 24.3367Z" fill="white"></path>
        <path d="M25.1389 10.7028C26.7922 10.2694 27.7544 9.11 27.7544 7.51055C27.7544 5.99499 26.505 4.80888 24.0533 4.80888H20.7178C21.0422 5.59999 20.9694 8.315 20.9694 9.66444C20.9694 11.0139 20.8961 12.7067 20.8739 13.865C20.8644 14.3667 21.0544 14.5578 21.5539 14.5578H22.7394C22.5972 14.1422 22.5328 12.8806 22.5156 10.89H23.6044C26.5883 15.7578 28.6122 17.1672 30.9272 16.5844C28.685 15.5655 26.9872 13.2094 25.1394 10.7033L25.1389 10.7028ZM23.4344 10.1956H22.5111C22.5111 10.0228 22.51 9.84555 22.51 9.66388C22.51 8.40333 22.5589 6.71833 22.5817 5.57055C22.9872 5.54222 23.3211 5.52611 23.5317 5.52611C25.1894 5.52611 26.1411 6.38222 26.1411 7.72666C26.1411 9.42166 24.9344 10.1956 23.4344 10.1956Z" fill="white"></path>
        <path d="M41.535 9.66389C41.535 8.67167 41.5844 7.33333 41.6072 6.43111C41.6167 6.05222 41.4183 5.85056 41.0406 5.85056H39.8561C40.0806 6.53722 40.0622 7.77611 40.0622 9.66389C40.0622 10.6561 39.99 11.9944 39.9678 12.8967C39.9583 13.2756 40.1567 13.4772 40.5344 13.4772H41.7417C41.5172 12.7906 41.5356 11.5517 41.5356 9.66389H41.535Z" fill="white"></path>
        <path d="M33.2794 4.80888H29.5744C29.8905 5.50444 29.8261 8.315 29.8261 9.66444C29.8261 11.0139 29.7528 12.7067 29.7305 13.865C29.7211 14.3667 29.9111 14.5578 30.4105 14.5578H32.9733C36.6267 14.5578 38.4933 12.4244 38.4933 9.40388C38.4933 6.38333 36.3661 4.80888 33.2794 4.80888ZM32.7839 13.7217H31.4655C31.3944 12.8756 31.3672 11.5028 31.3672 9.66444C31.3672 8.41777 31.415 6.75666 31.4383 5.61C31.8167 5.57888 32.2011 5.56055 32.5783 5.56055C34.3811 5.56055 36.7694 6.38277 36.7694 9.66444C36.7694 12.9461 34.8083 13.7217 32.7839 13.7217Z" fill="white"></path>
        <path d="M48.6378 4.80888H43.2805C43.5967 5.50444 43.5322 8.315 43.5322 9.66444C43.5322 11.0139 43.4589 12.7067 43.4367 13.865C43.4272 14.3667 43.6172 14.5578 44.1167 14.5578H45.3022C45.1339 14.0661 45.0744 12.3911 45.0733 9.72722H46.1328C47.3361 9.72722 47.9555 9.85666 48.2311 10.0967C48.4589 9.47555 48.4683 8.95833 47.8656 8.95833H45.0772C45.0894 7.84277 45.1244 6.56166 45.1439 5.62166H46.8061C48.0778 5.62166 48.7328 5.78277 49.0244 6.03611C49.265 5.37944 49.275 4.80888 48.6383 4.80888H48.6378Z" fill="white"></path>
        <path d="M54.0328 5.06056C55.3789 5.06056 56.0722 5.23112 56.3811 5.49945C56.6361 4.80445 56.6461 4.20056 55.9722 4.20056H50.0339C50.3439 4.90334 50.3344 7.03167 50.3344 9.66445C50.3344 11.0233 50.2405 13.9228 50.2139 15.4322C50.205 15.9333 50.395 16.1239 50.8939 16.1239H52.1861C51.9783 15.8361 51.9139 13.2489 51.9083 10.1072H53.4133C54.6883 10.1072 55.3444 10.2445 55.6367 10.4983C55.8778 9.84056 55.8878 9.29223 55.2494 9.29223H51.9094C51.9172 8.01834 51.9594 6.24445 51.9811 5.06056H54.0328Z" fill="white"></path>
        <path d="M18.0889 9.66389C17.5011 8.29778 16.9194 6.96389 16.5778 6.18833C16.4872 5.98278 16.2839 5.85056 16.0594 5.85056H15.7622C15.4583 6.88 14.8806 8.05944 14.1056 9.66389C13.5478 10.8189 13.0122 11.9422 12.5483 12.8111C12.3228 13.2339 12.4594 13.4772 12.8583 13.4772H13.48C13.3972 13.2061 13.7239 12.2906 14.2 11.1744H17.1428C17.3683 11.7644 17.5889 12.3672 17.81 13.015C17.9039 13.2906 18.1628 13.4772 18.4539 13.4772H19.8767C19.4933 13.1306 18.9617 11.6906 18.0894 9.66389H18.0889ZM14.4617 10.5739C14.8778 9.63722 15.3611 8.62222 15.7794 7.75556C16.1839 8.76833 16.5544 9.66889 16.9094 10.5739H14.4611H14.4617Z" fill="white"></path>
        <path d="M13.5783 14.4272C12.855 15.1622 11.7606 15.5595 10.6117 15.5595C7.20722 15.5595 5.57833 12.765 5.57833 10.0428C5.57833 7.32056 7.04833 4.93556 9.86278 4.93556C11.7289 4.93556 13.0306 6.04056 13.3017 7.24445C13.5639 6.83667 13.9789 6.22723 13.9789 5.68612C13.9789 4.73778 12.4506 3.95056 10.0394 3.95056C5.95944 3.95056 3.77722 7.28389 3.77722 10.5406C3.77722 13.7972 5.78444 16.69 10.0456 16.69C11.2583 16.69 12.5472 16.3622 13.5033 15.755C13.6511 15.6611 13.7283 15.4872 13.7044 15.3139L13.5783 14.4272Z" fill="white"></path>
        <path d="M60 29.1H0V30.9H60V29.1Z" fill="white"></path>
    </g>
    <defs>
        <clipPath id="clip0_431_8152">
            <rect fill="white" height="100" width="100"></rect>
        </clipPath>
    </defs>
</svg>